<svg width="21" height="15" viewBox="0 0 21 15" fill="none" xmlns="http://www.w3.org/2000/svg">
<path d="M20.25 5.25C20.4489 5.25 20.6397 5.17098 20.7803 5.03033C20.921 4.88968 21 4.69891 21 4.5V1.5C21 1.10218 20.842 0.720644 20.5607 0.43934C20.2794 0.158035 19.8978 0 19.5 0H1.5C1.10218 0 0.720644 0.158035 0.43934 0.43934C0.158035 0.720644 0 1.10218 0 1.5V4.5C0 4.69891 0.0790176 4.88968 0.21967 5.03033C0.360322 5.17098 0.551088 5.25 0.75 5.25C1.34674 5.25 1.91903 5.48705 2.34099 5.90901C2.76295 6.33097 3 6.90326 3 7.5C3 8.09674 2.76295 8.66903 2.34099 9.09099C1.91903 9.51295 1.34674 9.75 0.75 9.75C0.551088 9.75 0.360322 9.82902 0.21967 9.96967C0.0790176 10.1103 0 10.3011 0 10.5V13.5C0 13.8978 0.158035 14.2794 0.43934 14.5607C0.720644 14.842 1.10218 15 1.5 15H19.5C19.8978 15 20.2794 14.842 20.5607 14.5607C20.842 14.2794 21 13.8978 21 13.5V10.5C21 10.3011 20.921 10.1103 20.7803 9.96967C20.6397 9.82902 20.4489 9.75 20.25 9.75C19.6533 9.75 19.081 9.51295 18.659 9.09099C18.2371 8.66903 18 8.09674 18 7.5C18 6.90326 18.2371 6.33097 18.659 5.90901C19.081 5.48705 19.6533 5.25 20.25 5.25ZM1.5 11.175C2.34772 11.0029 3.10986 10.543 3.65728 9.87319C4.20471 9.20344 4.50376 8.36502 4.50376 7.5C4.50376 6.63498 4.20471 5.79657 3.65728 5.12681C3.10986 4.45705 2.34772 3.99714 1.5 3.825V1.5H6.75V13.5H1.5V11.175ZM19.5 11.175V13.5H8.25V1.5H19.5V3.825C18.6523 3.99714 17.8901 4.45705 17.3427 5.12681C16.7953 5.79657 16.4962 6.63498 16.4962 7.5C16.4962 8.36502 16.7953 9.20344 17.3427 9.87319C17.8901 10.543 18.6523 11.0029 19.5 11.175Z" fill="#2196F3"/>
</svg>
